<svg id="Capa_1" fill="#eb3b5a" enable-background="new 0 0 512 512" height="512" viewBox="0 0 512 512" width="512" xmlns="http://www.w3.org/2000/svg"><g><g><g><g><g><circle cx="125.949" cy="73.755" r="7.5"/><circle cx="160.199" cy="73.755" r="7.5"/><circle cx="194.449" cy="73.755" r="7.5"/></g></g></g></g><g><path d="m236.699 472.5c4.143 0 7.5-3.357 7.5-7.5s-3.357-7.5-7.5-7.5h-33c-4.143 0-7.5 3.357-7.5 7.5s3.357 7.5 7.5 7.5z"/><path d="m404.596 121.442v-83.082c0-21.152-17.209-38.36-38.361-38.36h-292.072c-21.153 0-38.362 17.208-38.362 38.36v321.24c0 4.143 3.357 7.5 7.5 7.5s7.5-3.357 7.5-7.5v-321.24c0-12.881 10.48-23.36 23.362-23.36h292.072c12.882 0 23.361 10.479 23.361 23.36v80.015c-8.382-1.044-17.113-1.049-26.011.2v-55.73c0-12.04-9.795-21.836-21.835-21.836h-243.103c-12.04 0-21.835 9.796-21.835 21.836v352.353c0 12.04 9.795 21.836 21.835 21.836h243.103c12.04 0 21.835-9.796 21.835-21.836v-18.286c0-.017 0-.034 0-.051v-35.44c4.713 3.152 8.109 5.696 13.737 5.696 5.222 0 8.236-2.072 12.273-4.718v111.24c0 12.882-10.479 23.361-23.361 23.361h-292.071c-12.882 0-23.361-10.479-23.361-23.361v-78.977c0-4.143-3.357-7.5-7.5-7.5s-7.5 3.357-7.5 7.5v78.977c-.001 21.152 17.208 38.361 38.361 38.361h292.072c21.152 0 38.361-17.209 38.361-38.361v-122.063c28.448-22.411 71.603-67.555 71.603-135.093 0-45.023-30.314-83.163-71.603-95.041zm-312.784-58.596c0-3.77 3.066-6.836 6.835-6.836h243.103c3.769 0 6.835 3.066 6.835 6.836v28.654h-256.773zm0 43.654h134.021l-74.764 74.763-59.257-59.257zm256.773 308.698c0 3.77-3.066 6.836-6.835 6.836h-243.103c-3.769 0-6.835-3.066-6.835-6.836v-271.977l133.646 133.645-26.197 26.197c-2.929 2.93-2.929 7.678 0 10.607 2.931 2.929 7.678 2.928 10.607 0l26.197-26.197 112.52 112.52zm0-36.42-186.908-186.908 85.371-85.37h101.537v15.407c-42.87 13.186-71.514 54.601-70.047 99.658 2.072 63.592 42.397 106.657 70.047 128.833zm29.726-26.965c-.606.377-1.355.381-1.953.009-43.367-27.053-80.977-73.956-82.827-130.746-1.538-47.165 35.23-88.464 83.98-88.464 46.146.1 83.688 37.724 83.688 83.871 0 57.16-36.104 106.139-82.888 135.33z"/><path d="m396.874 175.888c3.732 1.793 8.214.226 10.011-3.507 1.796-3.732.226-8.215-3.507-10.011-50.84-24.46-104.665 28.874-80.253 80.011 1.287 2.695 3.974 4.271 6.773 4.271 1.084 0 2.184-.236 3.227-.733 3.737-1.785 5.321-6.262 3.537-10-18.292-38.316 22.03-78.404 60.212-60.031z"/><path d="m431.569 190.672c-1.781-3.74-6.261-5.325-9.996-3.547-3.74 1.781-5.328 6.257-3.547 9.996 8.184 17.184 4.635 37.775-8.832 51.241-13.479 13.479-34.086 17.021-51.275 8.813-3.735-1.784-8.214-.201-10 3.537-1.784 3.738-.2 8.215 3.537 10 8.234 3.931 17.052 5.84 25.809 5.839 15.614-.001 31.027-6.073 42.536-17.583 17.947-17.946 22.676-45.392 11.768-68.296z"/><path d="m173.847 322.441-61.503 24.223c-11.118 4.379-9.962 20.524 1.666 23.272l22.804 5.394 5.393 22.804c2.749 11.621 18.877 12.824 23.273 1.665l24.222-61.502c3.905-9.916-5.923-19.765-15.855-15.856zm-19.08 63.625-3.751-15.858c-1.072-4.529-4.553-8.009-9.083-9.081l-15.854-3.75 47.328-18.641z"/></g></g></svg>